<svg width="11" height="13" viewBox="0 0 11 13" fill="none" xmlns="http://www.w3.org/2000/svg">
<g clip-path="url(#clip0_76_978)">
<path fill-rule="evenodd" clip-rule="evenodd" d="M10.9312 2.32668C10.9312 1.95773 10.7881 1.60389 10.5335 1.343C10.2788 1.08211 9.93349 0.935547 9.57339 0.935547L1.42684 0.935546C1.06674 0.935546 0.721391 1.08211 0.466762 1.343C0.212132 1.60389 0.0690832 1.95773 0.0690832 2.32668L0.0690828 10.6734C0.0690828 11.0424 0.212132 11.3962 0.466761 11.6571C0.72139 11.918 1.06674 12.0646 1.42684 12.0646L9.57339 12.0646C9.93349 12.0646 10.2788 11.918 10.5335 11.6571C10.7881 11.3962 10.9312 11.0424 10.9312 10.6735L10.9312 2.32668ZM5.16068 4.06559C5.16068 3.97335 5.19644 3.88489 5.2601 3.81967C5.32375 3.75445 5.41009 3.7178 5.50012 3.7178C5.59014 3.7178 5.67648 3.75445 5.74014 3.81967C5.80379 3.88489 5.83956 3.97335 5.83956 4.06559L5.83956 8.09499L7.29643 6.60162C7.36017 6.53631 7.44662 6.49962 7.53676 6.49962C7.62689 6.49962 7.71334 6.53631 7.77708 6.60162C7.84082 6.66692 7.87662 6.75549 7.87662 6.84784C7.87662 6.9402 7.84082 7.02877 7.77708 7.09408L5.74044 9.18077C5.70891 9.21316 5.67145 9.23885 5.63021 9.25638C5.58898 9.27392 5.54477 9.28294 5.50012 9.28294C5.45547 9.28294 5.41126 9.27392 5.37002 9.25638C5.32878 9.23885 5.29133 9.21316 5.25979 9.18077L3.22316 7.09407C3.15942 7.02877 3.12361 6.9402 3.12361 6.84784C3.12361 6.75549 3.15942 6.66692 3.22316 6.60162C3.28689 6.53631 3.37334 6.49962 3.46348 6.49962C3.55362 6.49962 3.64007 6.53631 3.7038 6.60162L5.16068 8.09499L5.16068 4.06559Z" fill="white"/>
</g>
<defs>
<clipPath id="clip0_76_978">
<rect width="11.129" height="10.8621" fill="white" transform="translate(10.9312 0.935547) rotate(90)"/>
</clipPath>
</defs>
</svg>
