<svg width="12" height="11" viewBox="0 0 12 11" fill="none" xmlns="http://www.w3.org/2000/svg">
<g clip-path="url(#clip0_76_1051)">
<path fill-rule="evenodd" clip-rule="evenodd" d="M1.39113 0C1.02218 0 0.66834 0.143049 0.407452 0.397678C0.146565 0.652307 0 0.997659 0 1.35776L0 9.50431C0 9.86441 0.146565 10.2098 0.407452 10.4644C0.66834 10.719 1.02218 10.8621 1.39113 10.8621H9.7379C10.1069 10.8621 10.4607 10.719 10.7216 10.4644C10.9825 10.2098 11.129 9.86441 11.129 9.50431V1.35776C11.129 0.997659 10.9825 0.652307 10.7216 0.397678C10.4607 0.143049 10.1069 0 9.7379 0L1.39113 0ZM3.13004 5.77047C3.0378 5.77047 2.94934 5.73471 2.88412 5.67105C2.8189 5.6074 2.78226 5.52106 2.78226 5.43103C2.78226 5.34101 2.8189 5.25467 2.88412 5.19101C2.94934 5.12736 3.0378 5.09159 3.13004 5.09159H7.15945L5.66607 3.63472C5.60076 3.57098 5.56408 3.48454 5.56408 3.3944C5.56408 3.30426 5.60076 3.21781 5.66607 3.15407C5.73137 3.09034 5.81994 3.05453 5.9123 3.05453C6.00465 3.05453 6.09322 3.09034 6.15853 3.15407L8.24522 5.19071C8.27761 5.22224 8.30331 5.2597 8.32084 5.30094C8.33837 5.34218 8.3474 5.38639 8.3474 5.43103C8.3474 5.47568 8.33837 5.51989 8.32084 5.56113C8.30331 5.60237 8.27761 5.63983 8.24522 5.67136L6.15853 7.708C6.09322 7.77173 6.00465 7.80754 5.9123 7.80754C5.81994 7.80754 5.73137 7.77173 5.66607 7.708C5.60076 7.64426 5.56408 7.55781 5.56408 7.46767C5.56408 7.37753 5.60076 7.29109 5.66607 7.22735L7.15945 5.77047H3.13004Z" fill="white"/>
</g>
<defs>
<clipPath id="clip0_76_1051">
<rect width="11.129" height="10.8621" fill="white"/>
</clipPath>
</defs>
</svg>
