<svg width="22" height="22" viewBox="0 0 22 22" fill="none" xmlns="http://www.w3.org/2000/svg">
<path d="M10.825 5.875C8.10001 5.875 5.875 8.10001 5.875 10.825C5.875 13.575 8.10001 15.8 10.825 15.8C13.575 15.8 15.8 13.575 15.8 10.825C15.8 8.10001 13.575 5.875 10.825 5.875ZM14.6 10.85C14.6 12.75 13.075 14.4 11.175 14.575V7.1C13.075 7.275 14.6 8.92501 14.6 10.85Z" fill="#CFDDEA"/>
<path d="M11.425 17.4248H10.225V21.5998H11.425V17.4248Z" fill="#CFDDEA"/>
<path d="M11.425 0H10.225V4.17501H11.425V0Z" fill="#CFDDEA"/>
<path d="M4.17501 10.2251H0V11.4251H4.17501V10.2251Z" fill="#CFDDEA"/>
<path d="M21.6 10.2251H17.425V11.4251H21.6V10.2251Z" fill="#CFDDEA"/>
<path d="M6.51991 15.9242L5.67139 15.0757L2.71924 18.0278L3.56776 18.8764L6.51991 15.9242Z" fill="#CFDDEA"/>
<path d="M15.0883 5.70043L15.937 6.54883L18.8887 3.59626L18.0401 2.74786L15.0883 5.70043Z" fill="#CFDDEA"/>
<path d="M2.77044 3.58838L5.7226 6.54053L6.57112 5.692L3.61897 2.73985L2.77044 3.58838Z" fill="#CFDDEA"/>
<path d="M18.8629 18.019L15.9108 15.0669L15.0623 15.9154L18.0144 18.8676L18.8629 18.019Z" fill="#CFDDEA"/>
</svg>
